<?xml version="1.0" encoding="utf-8"?>
<!-- Generator: Adobe Illustrator 16.0.0, SVG Export Plug-In . SVG Version: 6.00 Build 0)  -->
<!DOCTYPE svg PUBLIC "-//W3C//DTD SVG 1.1//EN" "http://www.w3.org/Graphics/SVG/1.1/DTD/svg11.dtd">
<svg version="1.1" id="Layer_1" data-name="Layer 1" xmlns="http://www.w3.org/2000/svg" xmlns:xlink="http://www.w3.org/1999/xlink"  viewBox="0 0 800 300"><defs><style>.cls-1{fill:#1c1d1f;}.cls-2{fill-rule:evenodd;fill:url(#New_Gradient_Swatch_2);}.cls-3{fill:#fff;}</style><linearGradient id="New_Gradient_Swatch_2" x1="43.2" y1="86.4" x2="43.2" gradientUnits="userSpaceOnUse"><stop offset="0" stop-color="#00c244"/><stop offset="1" stop-color="#00d64b"/></linearGradient><symbol id="RGB_Cash_App" data-name="RGB Cash App" viewBox="0 0 267.44 55.4"><path class="cls-1" d="M34,13a1.59,1.59,0,0,1-2.12-.41A12.36,12.36,0,0,0,21.4,7.32c-8,0-12.92,6.33-12.92,15.37s5,15.49,13,15.49A12.24,12.24,0,0,0,32,32.65a1.6,1.6,0,0,1,2.11-.47l3.79,2.2a1.61,1.61,0,0,1,.5,2.33,19.77,19.77,0,0,1-17,8.79C8.67,45.5,0,36.22,0,22.69S8.67,0,21.27,0A20.15,20.15,0,0,1,38.19,8.38a1.62,1.62,0,0,1-.44,2.33Z"/><path class="cls-1" d="M62,43.1V41.26c-2,2.58-4.8,4.18-9.29,4.18-6.64,0-11.25-3.63-11.25-10,0-7.93,7.07-9.29,11.44-9.9,4.67-.68,8.67-1,8.67-4.06,0-2.71-3.14-3.44-5.79-3.44a19.63,19.63,0,0,0-8.72,2.21,1.59,1.59,0,0,1-2.19-.69l-1.4-2.84a1.6,1.6,0,0,1,.66-2.12A26.07,26.07,0,0,1,56.39,11.5c7.62,0,13,3.13,13,10.7V43.1a1.6,1.6,0,0,1-1.6,1.6H63.59A1.6,1.6,0,0,1,62,43.1Zm-.43-14.45c-1.48,1.11-4.19,1.48-7.08,2s-5.28,1.29-5.28,4.43c0,2.89,2.09,4.24,5.1,4.24,3.75,0,7.26-2.09,7.26-6.95Z"/><path class="cls-1" d="M76.3,36.42a1.6,1.6,0,0,1,2.22-.21,14.83,14.83,0,0,0,9.29,3c3.45,0,6-1.11,6-3.81,0-2.46-2.34-3-8-3.94-6-1-11.75-3-11.75-9.84,0-7.13,6.15-10.14,13.16-10.14a19.67,19.67,0,0,1,12.19,4,1.59,1.59,0,0,1,.22,2.31l-2,2.35a1.61,1.61,0,0,1-2.2.25A14.09,14.09,0,0,0,87,17.65c-3,0-5.53.86-5.53,3.19,0,2.59,3.63,3.08,7.26,3.69,7.74,1.36,12.66,3.57,12.66,10,0,6.77-5.41,10.95-14,10.95a20.14,20.14,0,0,1-13-4.25,1.61,1.61,0,0,1-.21-2.29Z"/><path class="cls-1" d="M106.08,43.1V2.4a1.6,1.6,0,0,1,1.6-1.6h4.61a1.6,1.6,0,0,1,1.6,1.6V16.29a11.94,11.94,0,0,1,9.9-4.79c6.83,0,10.82,4.86,10.82,11.8V43.1a1.6,1.6,0,0,1-1.6,1.6H128.4a1.6,1.6,0,0,1-1.6-1.6v-18c0-3.45-1.1-6.58-5.53-6.58-4.18,0-7.38,2.95-7.38,7.87V43.1a1.6,1.6,0,0,1-1.6,1.6h-4.61A1.6,1.6,0,0,1,106.08,43.1Z"/><path class="cls-1" d="M185.34,43.61,182,33.82H165.24l-3.32,9.79a1.6,1.6,0,0,1-1.52,1.09H155a1.6,1.6,0,0,1-1.5-2.16l15.1-40.7a1.6,1.6,0,0,1,1.5-1h7.43a1.6,1.6,0,0,1,1.5,1l15.05,40.71a1.6,1.6,0,0,1-1.5,2.15h-5.72A1.6,1.6,0,0,1,185.34,43.61ZM173.72,7.93,167.27,27h12.66Z"/><path class="cls-1" d="M205.64,13.84v2.52a11.72,11.72,0,0,1,10-4.86c8.86,0,14.58,7.32,14.58,16.91s-5.72,17-14.58,17a11.73,11.73,0,0,1-10-4.92V53.8a1.6,1.6,0,0,1-1.6,1.6h-4.61a1.6,1.6,0,0,1-1.6-1.6v-40a1.6,1.6,0,0,1,1.6-1.6H204A1.6,1.6,0,0,1,205.64,13.84ZM214,38.61c5.41,0,8.06-4.61,8.06-10.2S219.41,18.32,214,18.32s-8.36,4.49-8.36,10.09S208.53,38.61,214,38.61Z"/><path class="cls-1" d="M242.84,13.84v2.52a11.75,11.75,0,0,1,10-4.86c8.85,0,14.57,7.32,14.57,16.91s-5.72,17-14.57,17a11.76,11.76,0,0,1-10-4.92V53.8a1.6,1.6,0,0,1-1.6,1.6h-4.6a1.6,1.6,0,0,1-1.6-1.6v-40a1.59,1.59,0,0,1,1.6-1.6h4.6A1.59,1.59,0,0,1,242.84,13.84Zm8.37,24.77c5.41,0,8-4.61,8-10.2s-2.64-10.09-8-10.09-8.37,4.49-8.37,10.09S245.74,38.61,251.21,38.61Z"/></symbol><symbol id="RGB_Dollar" data-name="RGB Dollar" viewBox="0 0 86.4 86.4"><path class="cls-2" d="M56.28,0C65,0,69.29,0,74,1.48a18.34,18.34,0,0,1,11,11c1.48,4.67,1.48,9,1.48,17.68V56.28c0,8.67,0,13-1.48,17.68a18.34,18.34,0,0,1-11,11c-4.67,1.48-9,1.48-17.68,1.48H30.12c-8.67,0-13,0-17.68-1.48a18.34,18.34,0,0,1-11-11C0,69.29,0,65,0,56.28V30.12c0-8.67,0-13,1.48-17.68a18.34,18.34,0,0,1,11-11C17.11,0,21.45,0,30.12,0Z"/><path class="cls-3" d="M45.4,28.33A18,18,0,0,1,57,32.59a1.77,1.77,0,0,0,2.43-.05l3.34-3.35a1.71,1.71,0,0,0-.09-2.51,26.48,26.48,0,0,0-8.93-5l1-4.93a1.74,1.74,0,0,0-1.71-2.09H46.61a1.75,1.75,0,0,0-1.71,1.37L44,20.44c-8.56.42-15.82,4.66-15.82,13.35,0,7.51,6,10.74,12.34,13,6,2.23,9.18,3.06,9.18,6.2s-3.17,5.12-7.84,5.12a17.26,17.26,0,0,1-12.19-4.77,1.74,1.74,0,0,0-2.44,0l-3.58,3.5a1.73,1.73,0,0,0,0,2.49A23.71,23.71,0,0,0,34,65l-1,4.57a1.78,1.78,0,0,0,1.7,2.14h6.45a1.75,1.75,0,0,0,1.72-1.38L43.8,66c10.26-.63,16.53-6.15,16.53-14.23,0-7.44-6.25-10.58-13.84-13.14C42.15,37,38.4,35.93,38.4,32.71S41.9,28.33,45.4,28.33Z"/></symbol></defs><title>Cash App - Dollar - Full</title><use width="267.44" height="55.4" transform="translate(327.51 127.24)" xlink:href="#RGB_Cash_App"/><use id="RGB_Dollar-3" data-name="RGB Dollar" width="86.4" height="86.4" transform="translate(205.05 106.8)" xlink:href="#RGB_Dollar"/></svg>
